<svg xmlns="http://www.w3.org/2000/svg" xmlns:xlink="http://www.w3.org/1999/xlink" xmlns:lucid="lucid" width="1311.49" height="1493.82"><g transform="translate(-20 -50.4266486077654)" lucid:page-tab-id="0_0"><path d="M0 0h1374.65v1563.36H0z" fill="#fff"/><path d="M260 724.84c0-4.4 3.58-8 8-8h144c4.42 0 8 3.6 8 8v104c0 4.42-3.58 8-8 8H268c-4.42 0-8-3.58-8-8z" stroke="#000" stroke-opacity="0" stroke-width="10" fill="#19967d"/><use xlink:href="#a" transform="matrix(1,0,0,1,265,721.8433152744324) translate(39.96975308641976 60.37777777777778)"/><path d="M874.4 724.84c0-4.4 3.6-8 8-8h144c4.43 0 8 3.6 8 8v104c0 4.42-3.57 8-8 8h-144c-4.4 0-8-3.58-8-8z" stroke="#000" stroke-opacity="0" stroke-width="10" fill="#19967d"/><use xlink:href="#b" transform="matrix(1,0,0,1,879.4116210703999,721.8433152744325) translate(33.17283950617285 60.37777777777778)"/><path d="M874.4 151.1c0-4.42 3.6-8 8-8h144c4.43 0 8 3.58 8 8v104c0 4.4-3.57 8-8 8h-144c-4.4 0-8-3.6-8-8z" stroke="#000" stroke-opacity="0" stroke-width="10" fill="#19967d"/><use xlink:href="#c" transform="matrix(1,0,0,1,879.4116210703999,148.09331527443203) translate(10.13055555555556 60.37777777777778)"/><path d="M617.15 146.45c4-1.86 10.5-1.86 14.53 0l115.47 53.3c4 1.84 4 4.84 0 6.7l-115.47 53.3c-4.02 1.84-10.52 1.84-14.53 0l-115.47-53.3c-4.02-1.86-4.02-4.86 0-6.7z" stroke="#000" stroke-opacity="0" fill="#ffdba9"/><use xlink:href="#d" transform="matrix(1,0,0,1,499.41162107039986,148.09331527443192) translate(27.834259259259284 59.48888888888889)"/><path d="M617.15 720.2c4-1.86 10.5-1.86 14.53 0l115.47 53.3c4 1.84 4 4.84 0 6.7l-115.47 53.3c-4.02 1.84-10.52 1.84-14.53 0l-115.47-53.3c-4.02-1.86-4.02-4.86 0-6.7z" stroke="#000" stroke-opacity="0" fill="#ffdba9"/><use xlink:href="#e" transform="matrix(1,0,0,1,499.41162107039986,721.8433152744324) translate(56.41975308641979 59.48888888888889)"/><path d="M948 453.64c3.55-2.65 9.28-2.65 12.8 0l67.2 50.4c3.55 2.65 3.55 6.95 0 9.6l-67.2 50.4c-3.52 2.65-9.25 2.65-12.8 0l-67.2-50.4c-3.52-2.65-3.52-6.95 0-9.6z" stroke="#000" stroke-opacity="0" fill="#ffdba9"/><use xlink:href="#f" transform="matrix(1,0,0,1,879.4116210703999,453.8433152744326) translate(62.53086419753087 59.48888888888889)"/><path d="M197.08 776.84c0 22.1-35.16 40-78.54 40-43.38 0-78.54-17.9-78.54-40s35.16-40 78.54-40c43.38 0 78.54 17.9 78.54 40z" stroke="#fff" fill="#ffbbb1"/><use xlink:href="#g" transform="matrix(1,0,0,1,45.000000000000014,741.8433152744326) translate(32.075 38.6)"/><path d="M197.08 678.84c0 22.1-35.16 40-78.54 40-43.38 0-78.54-17.9-78.54-40s35.16-40 78.54-40c43.38 0 78.54 17.9 78.54 40z" stroke="#fff" fill="#ffbbb1"/><use xlink:href="#h" transform="matrix(1,0,0,1,45.000000000000014,643.8433152744326) translate(34.05 38.6)"/><path d="M197.08 580.84c0 22.1-35.16 40-78.54 40-43.38 0-78.54-17.9-78.54-40s35.16-40 78.54-40c43.38 0 78.54 17.9 78.54 40z" stroke="#fff" fill="#ffbbb1"/><use xlink:href="#i" transform="matrix(1,0,0,1,45.000000000000014,545.8433152744326) translate(21.525 38.6)"/><path d="M197.08 482.84c0 22.1-35.16 40-78.54 40-43.38 0-78.54-17.9-78.54-40s35.16-40 78.54-40c43.38 0 78.54 17.9 78.54 40z" stroke="#fff" fill="#ffbbb1"/><use xlink:href="#j" transform="matrix(1,0,0,1,45.000000000000014,447.84331527443254) translate(44.55 38.6)"/><path d="M1311.5 110.43c0 22.1-35.17 40-78.55 40-43.37 0-78.54-17.9-78.54-40s35.18-40 78.55-40c43.38 0 78.54 17.9 78.54 40z" stroke="#fff" fill="#ffbbb1"/><use xlink:href="#k" transform="matrix(1,0,0,1,1159.4116210703999,75.4266486077654) translate(25.074999999999996 38.6)"/><path d="M198.08 482.84h18.7c6.64 0 12 5.38 12 12v270c0 6.63 5.38 12 12 12h18.72" stroke="#333" fill="none"/><path d="M198.1 483.34h-.53v-1h.53M260 777.34h-.5v-1h.5" fill="#333"/><path d="M198.08 580.84h18.7c6.64 0 12 5.38 12 12v171.5c0 6.63 5.38 12 12 12h18.72" stroke="#333" fill="none"/><path d="M198.1 581.34h-.53v-1h.53M260 776.84h-.5v-1h.5" fill="#333"/><path d="M198.08 678.84h18.7c6.64 0 12 5.38 12 12v74c0 6.63 5.38 12 12 12h18.72" stroke="#333" fill="none"/><path d="M198.1 679.34h-.53v-1h.53M260 777.34h-.5v-1h.5" fill="#333"/><path d="M198.08 776.84h61.42" stroke="#333" fill="none"/><path d="M198.1 777.34h-.53v-1h.53M260 777.34h-.5v-1h.5" fill="#333"/><path d="M420.5 776.84h79.68" stroke="#333" fill="none"/><path d="M420.5 777.34h-.5v-1h.5" fill="#333"/><path d="M500.17 776.84h3.5M873.9 777.84H764.53M873.9 775.84H764.53" stroke="#333" fill="none"/><path d="M874.4 778.34h-.5v-1h.5M874.4 776.34h-.5v-1h.5" fill="#333"/><path d="M749.76 776.84l14.26-4.63v9.28z" stroke="#333" fill="#333"/><path d="M420.5 776.84h27.84c6.63 0 12-5.37 12-12V215.1c0-6.63 5.37-12 12-12h27.84" stroke="#333" fill="none"/><path d="M420.5 777.34h-.5v-1h.5" fill="#333"/><path d="M500.17 203.1h3.5M873.9 204.1H764.53M873.9 202.1H764.53" stroke="#333" fill="none"/><path d="M874.4 204.6h-.5v-1h.5M874.4 202.6h-.5v-1h.5" fill="#333"/><path d="M749.76 203.1l14.26-4.64v9.27z" stroke="#333" fill="#333"/><path d="M1034.9 203.1h47.26c6.63 0 12-5.38 12-12v-68.67c0-6.63 5.37-12 12-12h47.25" stroke="#333" fill="none"/><path d="M1034.92 203.6h-.5v-1h.5M1153.9 110.42l.02.5h-.52v-1h.53" fill="#333"/><path d="M1311.5 203.1c0 22.08-35.17 40-78.55 40-43.37 0-78.54-17.92-78.54-40 0-22.1 35.18-40 78.55-40 43.38 0 78.54 17.9 78.54 40z" stroke="#fff" fill="#ffbbb1"/><use xlink:href="#l" transform="matrix(1,0,0,1,1159.4116210703999,168.09331527443203) translate(49.075 38.6)"/><path d="M1034.9 203.1h118.5" stroke="#333" fill="none"/><path d="M1034.92 203.6h-.5v-1h.5M1153.9 203.1l.02.5h-.52v-1h.53" fill="#333"/><path d="M197.08 972.84c0 22.1-35.16 40-78.54 40-43.38 0-78.54-17.9-78.54-40s35.16-40 78.54-40c43.38 0 78.54 17.9 78.54 40z" stroke="#fff" fill="#ffbbb1"/><use xlink:href="#m" transform="matrix(1,0,0,1,45.000000000000014,937.8433152744326) translate(52.574999999999996 38.6)"/><path d="M198.08 972.84h18.7c6.64 0 12-5.37 12-12v-172c0-6.62 5.38-12 12-12h18.72" stroke="#333" fill="none"/><path d="M198.1 973.34h-.53v-1h.53M260 777.34h-.5v-1h.5" fill="#333"/><path d="M197.08 1070.84c0 22.1-35.16 40-78.54 40-43.38 0-78.54-17.9-78.54-40s35.16-40 78.54-40c43.38 0 78.54 17.9 78.54 40z" stroke="#fff" fill="#ffbbb1"/><use xlink:href="#n" transform="matrix(1,0,0,1,45.000000000000014,1035.8433152744324) translate(11.049999999999997 38.6)"/><path d="M198.08 1070.84h18.7c6.64 0 12-5.37 12-12v-270c0-6.62 5.38-12 12-12h18.72" stroke="#333" fill="none"/><path d="M198.1 1071.34h-.53v-1h.53M260 777.34h-.5v-1h.5" fill="#333"/><path d="M955.4 263.6v171.77M953.4 263.6v171.77" stroke="#333" fill="none"/><path d="M955.9 263.6h-1v-.5h1M953.9 263.6h-1v-.5h1" fill="#333"/><path d="M954.4 450.14l-4.62-14.27h9.27z" stroke="#333" fill="#333"/><path d="M1311.5 722.84c0 22.1-35.17 40-78.55 40-43.37 0-78.54-17.9-78.54-40s35.18-40 78.55-40c43.38 0 78.54 17.9 78.54 40z" stroke="#fff" fill="#ffbbb1"/><use xlink:href="#o" transform="matrix(1,0,0,1,1159.4116210703999,687.8433152744325) translate(24.525 38.6)"/><path d="M1311.5 829.84c0 22.1-35.17 40-78.55 40-43.37 0-78.54-17.9-78.54-40s35.18-40 78.55-40c43.38 0 78.54 17.9 78.54 40z" stroke="#fff" fill="#ffbbb1"/><use xlink:href="#i" transform="matrix(1,0,0,1,1159.4116210703999,794.8433152744326) translate(21.525 38.6)"/><path d="M1311.5 936.84c0 22.1-35.17 40-78.55 40-43.37 0-78.54-17.9-78.54-40s35.18-40 78.55-40c43.38 0 78.54 17.9 78.54 40z" stroke="#fff" fill="#ffbbb1"/><use xlink:href="#p" transform="matrix(1,0,0,1,1159.4116210703999,901.8433152744325) translate(45.025 38.6)"/><path d="M1311.5 508.84c0 22.1-35.17 40-78.55 40-43.37 0-78.54-17.9-78.54-40s35.18-40 78.55-40c43.38 0 78.54 17.9 78.54 40z" stroke="#fff" fill="#ffbbb1"/><use xlink:href="#q" transform="matrix(1,0,0,1,1159.4116210703999,473.8433152744326) translate(35.074999999999996 38.6)"/><path d="M1153.4 722.84h-47.24c-6.63 0-12 5.38-12 12v30c0 6.63-5.37 12-12 12h-47.25" stroke="#333" fill="none"/><path d="M1153.9 722.84l.02.5h-.52v-1h.53M1034.92 777.34h-.5v-1h.5" fill="#333"/><path d="M1153.4 829.84h-47.24c-6.63 0-12-5.37-12-12v-29c0-6.62-5.37-12-12-12h-47.25" stroke="#333" fill="none"/><path d="M1153.9 829.84l.02.5h-.52v-1h.53M1034.92 777.34h-.5v-1h.5" fill="#333"/><path d="M1153.4 936.84h-47.24c-6.63 0-12-5.37-12-12v-136c0-6.62-5.37-12-12-12h-47.25" stroke="#333" fill="none"/><path d="M1153.9 936.84l.02.5h-.52v-1h.53M1034.92 777.34h-.5v-1h.5" fill="#333"/><path d="M1311.5 615.84c0 22.1-35.17 40-78.55 40-43.37 0-78.54-17.9-78.54-40s35.18-40 78.55-40c43.38 0 78.54 17.9 78.54 40z" stroke="#fff" fill="#ffbbb1"/><use xlink:href="#r" transform="matrix(1,0,0,1,1159.4116210703999,580.8433152744324) translate(44.55 38.6)"/><path d="M1153.4 615.84h-47.24c-6.63 0-12 5.38-12 12v137c0 6.63-5.37 12-12 12h-47.25" stroke="#333" fill="none"/><path d="M1153.9 615.84l.02.5h-.52v-1h.53M1034.92 777.34h-.5v-1h.5" fill="#333"/><path d="M1153.4 508.84h-47.24c-6.63 0-12 5.38-12 12v244c0 6.63-5.37 12-12 12h-47.25" stroke="#333" fill="none"/><path d="M1153.9 508.84l.02.5h-.52v-1h.53M1034.92 777.34h-.5v-1h.5" fill="#333"/><path d="M874.4 1276.25c0-4.42 3.6-8 8-8h144c4.43 0 8 3.58 8 8v104c0 4.42-3.57 8-8 8h-144c-4.4 0-8-3.58-8-8z" stroke="#000" stroke-opacity="0" stroke-width="10" fill="#19967d"/><use xlink:href="#s" transform="matrix(1,0,0,1,879.4116210703999,1273.25) translate(30.259876543209884 60.37777777777778)"/><path d="M954.4 716.34v-149.9" stroke="#333" fill="none"/><path d="M954.9 716.84h-1v-.5h1M954.9 565.94v.5h-1v-.52" fill="#333"/><path d="M617.15 1271.6c4-1.85 10.5-1.85 14.53 0l115.47 53.3c4 1.85 4 4.85 0 6.7l-115.47 53.3c-4.02 1.85-10.52 1.85-14.53 0l-115.47-53.3c-4.02-1.85-4.02-4.85 0-6.7z" stroke="#000" stroke-opacity="0" fill="#ffdba9"/><use xlink:href="#t" transform="matrix(1,0,0,1,499.41162107039986,1273.25) translate(49.062962962963 59.48888888888889)"/><path d="M873.9 1329.25H764.53M873.9 1327.25H764.53" stroke="#333" fill="none"/><path d="M874.4 1329.75h-.5v-1h.5M874.4 1327.75h-.5v-1h.5" fill="#333"/><path d="M749.76 1328.25l14.26-4.64v9.3z" stroke="#333" fill="#333"/><path d="M948 997.35c3.55-2.65 9.28-2.65 12.8 0l67.2 50.4c3.55 2.65 3.55 6.95 0 9.6l-67.2 50.4c-3.52 2.65-9.25 2.65-12.8 0l-67.2-50.4c-3.52-2.65-3.52-6.95 0-9.6z" stroke="#000" stroke-opacity="0" fill="#ffdba9"/><use xlink:href="#u" transform="matrix(1,0,0,1,879.4116210703999,997.5466576372162) translate(33.25956790123459 59.48888888888889)"/><path d="M954.4 1267.75v-157.62" stroke="#333" fill="none"/><path d="M954.9 1268.25h-1v-.5h1M954.9 1109.64v.5h-1v-.5" fill="#333"/><path d="M954.4 837.34v157.62" stroke="#333" fill="none"/><path d="M954.9 837.36h-1v-.52h1M954.9 995.47l-1-.02v-.5h1" fill="#333"/><path d="M1311.5 1276.25c0 22.1-35.17 40-78.55 40-43.37 0-78.54-17.9-78.54-40s35.18-40 78.55-40c43.38 0 78.54 17.9 78.54 40z" stroke="#fff" fill="#ffbbb1"/><use xlink:href="#v" transform="matrix(1,0,0,1,1159.4116210703999,1241.25) translate(22.074999999999996 38.6)"/><path d="M1034.9 1328.25h47.26c6.63 0 12-5.37 12-12v-28c0-6.63 5.37-12 12-12h47.25" stroke="#333" fill="none"/><path d="M1034.92 1328.75h-.5v-1h.5M1153.9 1276.25l.02.5h-.52v-1h.53" fill="#333"/><path d="M1311.5 290.43c0 22.1-35.17 40-78.55 40-43.37 0-78.54-17.9-78.54-40s35.18-40 78.55-40c43.38 0 78.54 17.9 78.54 40z" stroke="#fff" fill="#ffbbb1"/><use xlink:href="#i" transform="matrix(1,0,0,1,1159.4116210703999,255.4266486077654) translate(21.525 38.6)"/><path d="M1153.4 290.43h-47.24c-6.63 0-12-5.38-12-12V215.1c0-6.63-5.37-12-12-12h-47.25" stroke="#333" fill="none"/><path d="M1153.9 290.42l.02.5h-.52v-1h.53M1034.92 203.6h-.5v-1h.5" fill="#333"/><path d="M1311.5 1172.25c0 22.1-35.17 40-78.55 40-43.37 0-78.54-17.9-78.54-40s35.18-40 78.55-40c43.38 0 78.54 17.9 78.54 40z" stroke="#fff" fill="#ffbbb1"/><use xlink:href="#w" transform="matrix(1,0,0,1,1159.4116210703999,1137.25) translate(37.574999999999996 38.6)"/><path d="M1034.9 1328.25h47.26c6.63 0 12-5.37 12-12v-132c0-6.63 5.37-12 12-12h47.25" stroke="#333" fill="none"/><path d="M1034.92 1328.75h-.5v-1h.5M1153.9 1172.25l.02.5h-.52v-1h.53" fill="#333"/><path d="M794.4 1052.55c0 22.1-17.9 40-40 40-22.08 0-40-17.9-40-40s17.92-40 40-40c22.1 0 40 17.9 40 40z" stroke="#fff" fill="#f9d2de"/><use xlink:href="#x" transform="matrix(1,0,0,1,719.4116210703999,1017.5466576372162) translate(4.574999999999999 38.6)"/><path d="M795.4 1052.55h82.37" stroke="#333" fill="none"/><path d="M795.42 1053.05h-.54l.03-.5v-.5h.52M878.25 1053.05h-.5v-1h.54" fill="#333"/><path d="M1311.5 1380.25c0 22.1-35.17 40-78.55 40-43.37 0-78.54-17.9-78.54-40s35.18-40 78.55-40c43.38 0 78.54 17.9 78.54 40z" stroke="#fff" fill="#ffbbb1"/><use xlink:href="#y" transform="matrix(1,0,0,1,1159.4116210703999,1345.25) translate(1.125 38.6)"/><path d="M1153.4 1380.25h-47.24c-6.63 0-12-5.37-12-12v-28c0-6.63-5.37-12-12-12h-47.25" stroke="#333" fill="none"/><path d="M1153.9 1380.25l.02.5h-.52v-1h.53M1034.92 1328.75h-.5v-1h.5" fill="#333"/><path d="M1311.5 1043.84c0 22.1-35.17 40-78.55 40-43.37 0-78.54-17.9-78.54-40s35.18-40 78.55-40c43.38 0 78.54 17.9 78.54 40z" stroke="#fff" fill="#ffbbb1"/><use xlink:href="#z" transform="matrix(1,0,0,1,1159.4116210703999,1008.8433152744328) translate(57 38.6)"/><path d="M1153.4 1043.84h-47.24c-6.63 0-12-5.37-12-12v-243c0-6.62-5.37-12-12-12h-47.25" stroke="#333" fill="none"/><path d="M1153.9 1043.84l.02.5h-.52v-1h.53M1034.92 777.34h-.5v-1h.5" fill="#333"/><path d="M420.5 776.84h26.95c6.63 0 12 5.38 12 12v527.4c0 6.64 5.37 12 12 12h26.95" stroke="#333" fill="none"/><path d="M420.5 777.34h-.5v-1h.5M499 1328.75h-.6v-1h.4" fill="#333"/><path d="M1311.5 382.1c0 22.08-35.17 40-78.55 40-43.37 0-78.54-17.92-78.54-40 0-22.1 35.18-40 78.55-40 43.38 0 78.54 17.9 78.54 40z" stroke="#fff" fill="#ffbbb1"/><use xlink:href="#A" transform="matrix(1,0,0,1,1159.4116210703999,347.0933152744326) translate(44.5 38.6)"/><path d="M1153.4 382.1h-47.24c-6.63 0-12-5.38-12-12v-155c0-6.63-5.37-12-12-12h-47.25" stroke="#333" fill="none"/><path d="M1153.9 382.1l.02.5h-.52v-1h.53M1034.92 203.6h-.5v-1h.5" fill="#333"/><path d="M197.08 874.84c0 22.1-35.16 40-78.54 40-43.38 0-78.54-17.9-78.54-40s35.16-40 78.54-40c43.38 0 78.54 17.9 78.54 40z" stroke="#fff" fill="#ffbbb1"/><use xlink:href="#B" transform="matrix(1,0,0,1,45,839.8433152744326) translate(32.55 38.6)"/><path d="M198.08 874.84h18.7c6.64 0 12-5.37 12-12v-74c0-6.62 5.38-12 12-12h18.72" stroke="#333" fill="none"/><path d="M198.1 875.34h-.53v-1h.53M260 777.34h-.5v-1h.5" fill="#333"/><path d="M1311.5 1484.25c0 22.1-35.17 40-78.55 40-43.37 0-78.54-17.9-78.54-40s35.18-40 78.55-40c43.38 0 78.54 17.9 78.54 40z" stroke="#fff" fill="#ffbbb1"/><use xlink:href="#C" transform="matrix(1,0,0,1,1159.4116210703999,1449.25) translate(21.525 38.6)"/><path d="M1153.4 1484.25h-47.24c-6.63 0-12-5.37-12-12v-132c0-6.63-5.37-12-12-12h-47.25" stroke="#333" fill="none"/><path d="M1153.9 1484.25l.02.5h-.52v-1h.53M1034.92 1328.75h-.5v-1h.5" fill="#333"/><defs><path fill="#fff" d="M232-93c-1 65-40 97-104 97C67 4 28-28 28-90v-158h33c8 89-33 224 67 224 102 0 64-133 71-224h33v155" id="D"/><path fill="#fff" d="M135-143c-3-34-86-38-87 0 15 53 115 12 119 90S17 21 10-45l28-5c4 36 97 45 98 0-10-56-113-15-118-90-4-57 82-63 122-42 12 7 21 19 24 35" id="E"/><path fill="#fff" d="M100-194c63 0 86 42 84 106H49c0 40 14 67 53 68 26 1 43-12 49-29l28 8c-11 28-37 45-77 45C44 4 14-33 15-96c1-61 26-98 85-98zm52 81c6-60-76-77-97-28-3 7-6 17-6 28h103" id="F"/><path fill="#fff" d="M114-163C36-179 61-72 57 0H25l-1-190h30c1 12-1 29 2 39 6-27 23-49 58-41v29" id="G"/><g id="a"><use transform="matrix(0.07469135802469135,0,0,0.07469135802469135,0,0)" xlink:href="#D"/><use transform="matrix(0.07469135802469135,0,0,0.07469135802469135,19.34506172839506,0)" xlink:href="#E"/><use transform="matrix(0.07469135802469135,0,0,0.07469135802469135,32.7895061728395,0)" xlink:href="#F"/><use transform="matrix(0.07469135802469135,0,0,0.07469135802469135,47.72777777777778,0)" xlink:href="#G"/><use transform="matrix(0.07469135802469135,0,0,0.07469135802469135,56.61604938271604,0)" xlink:href="#E"/></g><path fill="#fff" d="M30-248c87 1 191-15 191 75 0 78-77 80-158 76V0H30v-248zm33 125c57 0 124 11 124-50 0-59-68-47-124-48v98" id="H"/><path fill="#fff" d="M106-169C34-169 62-67 57 0H25v-261h32l-1 103c12-21 28-36 61-36 89 0 53 116 60 194h-32v-121c2-32-8-49-39-48" id="I"/><path fill="#fff" d="M100-194c62-1 85 37 85 99 1 63-27 99-86 99S16-35 15-95c0-66 28-99 85-99zM99-20c44 1 53-31 53-75 0-43-8-75-51-75s-53 32-53 75 10 74 51 75" id="J"/><path fill="#fff" d="M59-47c-2 24 18 29 38 22v24C64 9 27 4 27-40v-127H5v-23h24l9-43h21v43h35v23H59v120" id="K"/><g id="b"><use transform="matrix(0.07469135802469135,0,0,0.07469135802469135,0,0)" xlink:href="#H"/><use transform="matrix(0.07469135802469135,0,0,0.07469135802469135,17.925925925925924,0)" xlink:href="#I"/><use transform="matrix(0.07469135802469135,0,0,0.07469135802469135,32.86419753086419,0)" xlink:href="#J"/><use transform="matrix(0.07469135802469135,0,0,0.07469135802469135,47.802469135802454,0)" xlink:href="#K"/><use transform="matrix(0.07469135802469135,0,0,0.07469135802469135,55.27160493827159,0)" xlink:href="#J"/><use transform="matrix(0.07469135802469135,0,0,0.07469135802469135,70.20987654320986,0)" xlink:href="#E"/></g><path fill="#fff" d="M212-179c-10-28-35-45-73-45-59 0-87 40-87 99 0 60 29 101 89 101 43 0 62-24 78-52l27 14C228-24 195 4 139 4 59 4 22-46 18-125c-6-104 99-153 187-111 19 9 31 26 39 46" id="L"/><path fill="#fff" d="M210-169c-67 3-38 105-44 169h-31v-121c0-29-5-50-35-48C34-165 62-65 56 0H25l-1-190h30c1 10-1 24 2 32 10-44 99-50 107 0 11-21 27-35 58-36 85-2 47 119 55 194h-31v-121c0-29-5-49-35-48" id="M"/><path fill="#fff" d="M117-194c89-4 53 116 60 194h-32v-121c0-31-8-49-39-48C34-167 62-67 57 0H25l-1-190h30c1 10-1 24 2 32 11-22 29-35 61-36" id="N"/><g id="c"><use transform="matrix(0.07469135802469135,0,0,0.07469135802469135,0,0)" xlink:href="#L"/><use transform="matrix(0.07469135802469135,0,0,0.07469135802469135,19.34506172839506,0)" xlink:href="#J"/><use transform="matrix(0.07469135802469135,0,0,0.07469135802469135,34.28333333333333,0)" xlink:href="#M"/><use transform="matrix(0.07469135802469135,0,0,0.07469135802469135,56.61604938271604,0)" xlink:href="#M"/><use transform="matrix(0.07469135802469135,0,0,0.07469135802469135,78.94876543209875,0)" xlink:href="#F"/><use transform="matrix(0.07469135802469135,0,0,0.07469135802469135,93.88703703703702,0)" xlink:href="#N"/><use transform="matrix(0.07469135802469135,0,0,0.07469135802469135,108.8253086419753,0)" xlink:href="#K"/><use transform="matrix(0.07469135802469135,0,0,0.07469135802469135,116.29444444444442,0)" xlink:href="#E"/></g><path fill="#333" d="M96-169c-40 0-48 33-48 73s9 75 48 75c24 0 41-14 43-38l32 2c-6 37-31 61-74 61-59 0-76-41-82-99-10-93 101-131 147-64 4 7 5 14 7 22l-32 3c-4-21-16-35-41-35" id="O"/><path fill="#333" d="M100-194c62-1 85 37 85 99 1 63-27 99-86 99S16-35 15-95c0-66 28-99 85-99zM99-20c44 1 53-31 53-75 0-43-8-75-51-75s-53 32-53 75 10 74 51 75" id="P"/><path fill="#333" d="M210-169c-67 3-38 105-44 169h-31v-121c0-29-5-50-35-48C34-165 62-65 56 0H25l-1-190h30c1 10-1 24 2 32 10-44 99-50 107 0 11-21 27-35 58-36 85-2 47 119 55 194h-31v-121c0-29-5-49-35-48" id="Q"/><path fill="#333" d="M100-194c63 0 86 42 84 106H49c0 40 14 67 53 68 26 1 43-12 49-29l28 8c-11 28-37 45-77 45C44 4 14-33 15-96c1-61 26-98 85-98zm52 81c6-60-76-77-97-28-3 7-6 17-6 28h103" id="R"/><path fill="#333" d="M117-194c89-4 53 116 60 194h-32v-121c0-31-8-49-39-48C34-167 62-67 57 0H25l-1-190h30c1 10-1 24 2 32 11-22 29-35 61-36" id="S"/><path fill="#333" d="M59-47c-2 24 18 29 38 22v24C64 9 27 4 27-40v-127H5v-23h24l9-43h21v43h35v23H59v120" id="T"/><path fill="#333" d="M135-143c-3-34-86-38-87 0 15 53 115 12 119 90S17 21 10-45l28-5c4 36 97 45 98 0-10-56-113-15-118-90-4-57 82-63 122-42 12 7 21 19 24 35" id="U"/><path fill="#333" d="M205 0l-28-72H64L36 0H1l101-248h38L239 0h-34zm-38-99l-47-123c-12 45-31 82-46 123h93" id="V"/><path fill="#333" d="M84 4C-5 8 30-112 23-190h32v120c0 31 7 50 39 49 72-2 45-101 50-169h31l1 190h-30c-1-10 1-25-2-33-11 22-28 36-60 37" id="W"/><path fill="#333" d="M106-169C34-169 62-67 57 0H25v-261h32l-1 103c12-21 28-36 61-36 89 0 53 116 60 194h-32v-121c2-32-8-49-39-48" id="X"/><path fill="#333" d="M114-163C36-179 61-72 57 0H25l-1-190h30c1 12-1 29 2 39 6-27 23-49 58-41v29" id="Y"/><path fill="#333" d="M85-194c31 0 48 13 60 33l-1-100h32l1 261h-30c-2-10 0-23-3-31C134-8 116 4 85 4 32 4 16-35 15-94c0-66 23-100 70-100zm9 24c-40 0-46 34-46 75 0 40 6 74 45 74 42 0 51-32 51-76 0-42-9-74-50-73" id="Z"/><g id="d"><use transform="matrix(0.06234567901234565,0,0,0.06234567901234565,0,0)" xlink:href="#O"/><use transform="matrix(0.06234567901234565,0,0,0.06234567901234565,11.222222222222218,0)" xlink:href="#P"/><use transform="matrix(0.06234567901234565,0,0,0.06234567901234565,23.691358024691347,0)" xlink:href="#Q"/><use transform="matrix(0.06234567901234565,0,0,0.06234567901234565,42.3327160493827,0)" xlink:href="#Q"/><use transform="matrix(0.06234567901234565,0,0,0.06234567901234565,60.974074074074046,0)" xlink:href="#R"/><use transform="matrix(0.06234567901234565,0,0,0.06234567901234565,73.44320987654318,0)" xlink:href="#S"/><use transform="matrix(0.06234567901234565,0,0,0.06234567901234565,85.9123456790123,0)" xlink:href="#T"/><use transform="matrix(0.06234567901234565,0,0,0.06234567901234565,92.14691358024687,0)" xlink:href="#U"/><use transform="matrix(0.06234567901234565,0,0,0.06234567901234565,103.36913580246909,0)" xlink:href="#V"/><use transform="matrix(0.06234567901234565,0,0,0.06234567901234565,118.33209876543205,0)" xlink:href="#W"/><use transform="matrix(0.06234567901234565,0,0,0.06234567901234565,130.8012345679012,0)" xlink:href="#T"/><use transform="matrix(0.06234567901234565,0,0,0.06234567901234565,137.03580246913575,0)" xlink:href="#X"/><use transform="matrix(0.06234567901234565,0,0,0.06234567901234565,149.50493827160489,0)" xlink:href="#P"/><use transform="matrix(0.06234567901234565,0,0,0.06234567901234565,161.97407407407403,0)" xlink:href="#Y"/><use transform="matrix(0.06234567901234565,0,0,0.06234567901234565,169.39320987654315,0)" xlink:href="#R"/><use transform="matrix(0.06234567901234565,0,0,0.06234567901234565,181.8623456790123,0)" xlink:href="#Z"/></g><path fill="#333" d="M115-194c55 1 70 41 70 98S169 2 115 4C84 4 66-9 55-30l1 105H24l-1-265h31l2 30c10-21 28-34 59-34zm-8 174c40 0 45-34 45-75s-6-73-45-74c-42 0-51 32-51 76 0 43 10 73 51 73" id="aa"/><path fill="#333" d="M30-248c87 1 191-15 191 75 0 78-77 80-158 76V0H30v-248zm33 125c57 0 124 11 124-50 0-59-68-47-124-48v98" id="ab"/><g id="e"><use transform="matrix(0.06234567901234565,0,0,0.06234567901234565,0,0)" xlink:href="#aa"/><use transform="matrix(0.06234567901234565,0,0,0.06234567901234565,12.46913580246913,0)" xlink:href="#X"/><use transform="matrix(0.06234567901234565,0,0,0.06234567901234565,24.93827160493826,0)" xlink:href="#P"/><use transform="matrix(0.06234567901234565,0,0,0.06234567901234565,37.40740740740739,0)" xlink:href="#T"/><use transform="matrix(0.06234567901234565,0,0,0.06234567901234565,43.64197530864195,0)" xlink:href="#P"/><use transform="matrix(0.06234567901234565,0,0,0.06234567901234565,56.111111111111086,0)" xlink:href="#U"/><use transform="matrix(0.06234567901234565,0,0,0.06234567901234565,67.3333333333333,0)" xlink:href="#ab"/><use transform="matrix(0.06234567901234565,0,0,0.06234567901234565,82.29629629629626,0)" xlink:href="#P"/><use transform="matrix(0.06234567901234565,0,0,0.06234567901234565,94.76543209876539,0)" xlink:href="#U"/><use transform="matrix(0.06234567901234565,0,0,0.06234567901234565,105.9876543209876,0)" xlink:href="#T"/><use transform="matrix(0.06234567901234565,0,0,0.06234567901234565,112.22222222222217,0)" xlink:href="#R"/><use transform="matrix(0.06234567901234565,0,0,0.06234567901234565,124.6913580246913,0)" xlink:href="#Z"/></g><g id="f"><use transform="matrix(0.06234567901234565,0,0,0.06234567901234565,0,0)" xlink:href="#P"/><use transform="matrix(0.06234567901234565,0,0,0.06234567901234565,12.46913580246913,0)" xlink:href="#S"/></g><path fill="#333" d="M101-234c-31-9-42 10-38 44h38v23H63V0H32v-167H5v-23h27c-7-52 17-82 69-68v24" id="ac"/><path fill="#333" d="M24-231v-30h32v30H24zM24 0v-190h32V0H24" id="ad"/><path fill="#333" d="M-5 72V49h209v23H-5" id="ae"/><path fill="#333" d="M141-36C126-15 110 5 73 4 37 3 15-17 15-53c-1-64 63-63 125-63 3-35-9-54-41-54-24 1-41 7-42 31l-33-3c5-37 33-52 76-52 45 0 72 20 72 64v82c-1 20 7 32 28 27v20c-31 9-61-2-59-35zM48-53c0 20 12 33 32 33 41-3 63-29 60-74-43 2-92-5-92 41" id="af"/><g id="g"><use transform="matrix(0.05,0,0,0.05,0,0)" xlink:href="#ac"/><use transform="matrix(0.05,0,0,0.05,5,0)" xlink:href="#ad"/><use transform="matrix(0.05,0,0,0.05,8.95,0)" xlink:href="#Y"/><use transform="matrix(0.05,0,0,0.05,14.899999999999999,0)" xlink:href="#U"/><use transform="matrix(0.05,0,0,0.05,23.9,0)" xlink:href="#T"/><use transform="matrix(0.05,0,0,0.05,28.899999999999995,0)" xlink:href="#ae"/><use transform="matrix(0.05,0,0,0.05,38.9,0)" xlink:href="#S"/><use transform="matrix(0.05,0,0,0.05,48.9,0)" xlink:href="#af"/><use transform="matrix(0.05,0,0,0.05,58.900000000000006,0)" xlink:href="#Q"/><use transform="matrix(0.05,0,0,0.05,73.85,0)" xlink:href="#R"/></g><g id="h"><use transform="matrix(0.05,0,0,0.05,0,0)" xlink:href="#W"/><use transform="matrix(0.05,0,0,0.05,10,0)" xlink:href="#U"/><use transform="matrix(0.05,0,0,0.05,19,0)" xlink:href="#R"/><use transform="matrix(0.05,0,0,0.05,29,0)" xlink:href="#Y"/><use transform="matrix(0.05,0,0,0.05,34.95,0)" xlink:href="#S"/><use transform="matrix(0.05,0,0,0.05,44.95,0)" xlink:href="#af"/><use transform="matrix(0.05,0,0,0.05,54.95,0)" xlink:href="#Q"/><use transform="matrix(0.05,0,0,0.05,69.9,0)" xlink:href="#R"/></g><g id="i"><use transform="matrix(0.05,0,0,0.05,0,0)" xlink:href="#Z"/><use transform="matrix(0.05,0,0,0.05,10,0)" xlink:href="#af"/><use transform="matrix(0.05,0,0,0.05,20,0)" xlink:href="#T"/><use transform="matrix(0.05,0,0,0.05,25,0)" xlink:href="#R"/><use transform="matrix(0.05,0,0,0.05,35,0)" xlink:href="#ae"/><use transform="matrix(0.05,0,0,0.05,45,0)" xlink:href="#O"/><use transform="matrix(0.05,0,0,0.05,54,0)" xlink:href="#Y"/><use transform="matrix(0.05,0,0,0.05,59.95,0)" xlink:href="#R"/><use transform="matrix(0.05,0,0,0.05,69.95,0)" xlink:href="#af"/><use transform="matrix(0.05,0,0,0.05,79.95,0)" xlink:href="#T"/><use transform="matrix(0.05,0,0,0.05,84.95,0)" xlink:href="#R"/><use transform="matrix(0.05,0,0,0.05,94.95,0)" xlink:href="#Z"/></g><g id="j"><use transform="matrix(0.05,0,0,0.05,0,0)" xlink:href="#W"/><use transform="matrix(0.05,0,0,0.05,10,0)" xlink:href="#U"/><use transform="matrix(0.05,0,0,0.05,19,0)" xlink:href="#R"/><use transform="matrix(0.05,0,0,0.05,29,0)" xlink:href="#Y"/><use transform="matrix(0.05,0,0,0.05,34.95,0)" xlink:href="#ae"/><use transform="matrix(0.05,0,0,0.05,44.95,0)" xlink:href="#ad"/><use transform="matrix(0.05,0,0,0.05,48.900000000000006,0)" xlink:href="#Z"/><path fill="#333" d="M-.9 1.25h60.7v1.32H-.9z"/></g><g id="k"><use transform="matrix(0.05,0,0,0.05,0,0)" xlink:href="#O"/><use transform="matrix(0.05,0,0,0.05,9,0)" xlink:href="#P"/><use transform="matrix(0.05,0,0,0.05,19,0)" xlink:href="#Q"/><use transform="matrix(0.05,0,0,0.05,33.95,0)" xlink:href="#Q"/><use transform="matrix(0.05,0,0,0.05,48.900000000000006,0)" xlink:href="#R"/><use transform="matrix(0.05,0,0,0.05,58.900000000000006,0)" xlink:href="#S"/><use transform="matrix(0.05,0,0,0.05,68.9,0)" xlink:href="#T"/><use transform="matrix(0.05,0,0,0.05,73.9,0)" xlink:href="#ae"/><use transform="matrix(0.05,0,0,0.05,83.9,0)" xlink:href="#ad"/><use transform="matrix(0.05,0,0,0.05,87.85000000000001,0)" xlink:href="#Z"/><path fill="#333" d="M-.9 1.25h99.65v1.32H-.9z"/></g><path fill="#333" d="M24 0v-261h32V0H24" id="ag"/><path fill="#333" d="M143 0L79-87 56-68V0H24v-261h32v163l83-92h37l-77 82L181 0h-38" id="ah"/><g id="l"><use transform="matrix(0.05,0,0,0.05,0,0)" xlink:href="#ad"/><use transform="matrix(0.05,0,0,0.05,3.95,0)" xlink:href="#U"/><use transform="matrix(0.05,0,0,0.05,12.949999999999998,0)" xlink:href="#ae"/><use transform="matrix(0.05,0,0,0.05,22.95,0)" xlink:href="#ag"/><use transform="matrix(0.05,0,0,0.05,26.899999999999995,0)" xlink:href="#ad"/><use transform="matrix(0.05,0,0,0.05,30.849999999999994,0)" xlink:href="#ah"/><use transform="matrix(0.05,0,0,0.05,39.849999999999994,0)" xlink:href="#R"/></g><g id="m"><use transform="matrix(0.05,0,0,0.05,0,0)" xlink:href="#R"/><use transform="matrix(0.05,0,0,0.05,10,0)" xlink:href="#Q"/><use transform="matrix(0.05,0,0,0.05,24.950000000000003,0)" xlink:href="#af"/><use transform="matrix(0.05,0,0,0.05,34.95,0)" xlink:href="#ad"/><use transform="matrix(0.05,0,0,0.05,38.900000000000006,0)" xlink:href="#ag"/></g><path fill="#333" d="M206 0h-36l-40-164L89 0H53L-1-190h32L70-26l43-164h34l41 164 42-164h31" id="ai"/><g id="n"><use transform="matrix(0.05,0,0,0.05,0,0)" xlink:href="#aa"/><use transform="matrix(0.05,0,0,0.05,10,0)" xlink:href="#af"/><use transform="matrix(0.05,0,0,0.05,20,0)" xlink:href="#U"/><use transform="matrix(0.05,0,0,0.05,29,0)" xlink:href="#U"/><use transform="matrix(0.05,0,0,0.05,38,0)" xlink:href="#ai"/><use transform="matrix(0.05,0,0,0.05,50.95,0)" xlink:href="#P"/><use transform="matrix(0.05,0,0,0.05,60.95,0)" xlink:href="#Y"/><use transform="matrix(0.05,0,0,0.05,66.9,0)" xlink:href="#Z"/><use transform="matrix(0.05,0,0,0.05,76.9,0)" xlink:href="#ae"/><use transform="matrix(0.05,0,0,0.05,86.9,0)" xlink:href="#X"/><use transform="matrix(0.05,0,0,0.05,96.9,0)" xlink:href="#af"/><use transform="matrix(0.05,0,0,0.05,106.9,0)" xlink:href="#U"/><use transform="matrix(0.05,0,0,0.05,115.9,0)" xlink:href="#X"/></g><g id="o"><use transform="matrix(0.05,0,0,0.05,0,0)" xlink:href="#Z"/><use transform="matrix(0.05,0,0,0.05,10,0)" xlink:href="#af"/><use transform="matrix(0.05,0,0,0.05,20,0)" xlink:href="#T"/><use transform="matrix(0.05,0,0,0.05,25,0)" xlink:href="#R"/><use transform="matrix(0.05,0,0,0.05,35,0)" xlink:href="#ae"/><use transform="matrix(0.05,0,0,0.05,45,0)" xlink:href="#W"/><use transform="matrix(0.05,0,0,0.05,55,0)" xlink:href="#aa"/><use transform="matrix(0.05,0,0,0.05,65,0)" xlink:href="#ag"/><use transform="matrix(0.05,0,0,0.05,68.95,0)" xlink:href="#P"/><use transform="matrix(0.05,0,0,0.05,78.95,0)" xlink:href="#af"/><use transform="matrix(0.05,0,0,0.05,88.95,0)" xlink:href="#Z"/></g><g id="p"><use transform="matrix(0.05,0,0,0.05,0,0)" xlink:href="#O"/><use transform="matrix(0.05,0,0,0.05,9,0)" xlink:href="#af"/><use transform="matrix(0.05,0,0,0.05,19,0)" xlink:href="#aa"/><use transform="matrix(0.05,0,0,0.05,29,0)" xlink:href="#T"/><use transform="matrix(0.05,0,0,0.05,34,0)" xlink:href="#ad"/><use transform="matrix(0.05,0,0,0.05,37.95,0)" xlink:href="#P"/><use transform="matrix(0.05,0,0,0.05,47.95,0)" xlink:href="#S"/></g><g id="q"><use transform="matrix(0.05,0,0,0.05,0,0)" xlink:href="#aa"/><use transform="matrix(0.05,0,0,0.05,10,0)" xlink:href="#ad"/><use transform="matrix(0.05,0,0,0.05,13.949999999999998,0)" xlink:href="#O"/><use transform="matrix(0.05,0,0,0.05,22.95,0)" xlink:href="#T"/><use transform="matrix(0.05,0,0,0.05,27.950000000000003,0)" xlink:href="#W"/><use transform="matrix(0.05,0,0,0.05,37.95,0)" xlink:href="#Y"/><use transform="matrix(0.05,0,0,0.05,43.900000000000006,0)" xlink:href="#R"/><use transform="matrix(0.05,0,0,0.05,53.900000000000006,0)" xlink:href="#ae"/><use transform="matrix(0.05,0,0,0.05,63.900000000000006,0)" xlink:href="#ad"/><use transform="matrix(0.05,0,0,0.05,67.85000000000001,0)" xlink:href="#Z"/><path fill="#333" d="M-.9 1.25h79.65v1.32H-.9z"/></g><g id="r"><use transform="matrix(0.05,0,0,0.05,0,0)" xlink:href="#W"/><use transform="matrix(0.05,0,0,0.05,10,0)" xlink:href="#U"/><use transform="matrix(0.05,0,0,0.05,19,0)" xlink:href="#R"/><use transform="matrix(0.05,0,0,0.05,29,0)" xlink:href="#Y"/><use transform="matrix(0.05,0,0,0.05,34.95,0)" xlink:href="#ae"/><use transform="matrix(0.05,0,0,0.05,44.95,0)" xlink:href="#ad"/><use transform="matrix(0.05,0,0,0.05,48.900000000000006,0)" xlink:href="#Z"/></g><path fill="#fff" d="M205 0l-28-72H64L36 0H1l101-248h38L239 0h-34zm-38-99l-47-123c-12 45-31 82-46 123h93" id="aj"/><path fill="#fff" d="M24 0v-261h32V0H24" id="ak"/><path fill="#fff" d="M115-194c53 0 69 39 70 98 0 66-23 100-70 100C84 3 66-7 56-30L54 0H23l1-261h32v101c10-23 28-34 59-34zm-8 174c40 0 45-34 45-75 0-40-5-75-45-74-42 0-51 32-51 76 0 43 10 73 51 73" id="al"/><path fill="#fff" d="M84 4C-5 8 30-112 23-190h32v120c0 31 7 50 39 49 72-2 45-101 50-169h31l1 190h-30c-1-10 1-25-2-33-11 22-28 36-60 37" id="am"/><g id="s"><use transform="matrix(0.07469135802469135,0,0,0.07469135802469135,0,0)" xlink:href="#aj"/><use transform="matrix(0.07469135802469135,0,0,0.07469135802469135,17.925925925925924,0)" xlink:href="#ak"/><use transform="matrix(0.07469135802469135,0,0,0.07469135802469135,23.82654320987654,0)" xlink:href="#al"/><use transform="matrix(0.07469135802469135,0,0,0.07469135802469135,38.764814814814805,0)" xlink:href="#am"/><use transform="matrix(0.07469135802469135,0,0,0.07469135802469135,53.70308641975308,0)" xlink:href="#M"/><use transform="matrix(0.07469135802469135,0,0,0.07469135802469135,76.03580246913579,0)" xlink:href="#E"/></g><path fill="#333" d="M115-194c53 0 69 39 70 98 0 66-23 100-70 100C84 3 66-7 56-30L54 0H23l1-261h32v101c10-23 28-34 59-34zm-8 174c40 0 45-34 45-75 0-40-5-75-45-74-42 0-51 32-51 76 0 43 10 73 51 73" id="an"/><path fill="#333" d="M212-179c-10-28-35-45-73-45-59 0-87 40-87 99 0 60 29 101 89 101 43 0 62-24 78-52l27 14C228-24 195 4 139 4 59 4 22-46 18-125c-6-104 99-153 187-111 19 9 31 26 39 46" id="ao"/><g id="t"><use transform="matrix(0.06234567901234565,0,0,0.06234567901234565,0,0)" xlink:href="#af"/><use transform="matrix(0.06234567901234565,0,0,0.06234567901234565,12.46913580246913,0)" xlink:href="#ag"/><use transform="matrix(0.06234567901234565,0,0,0.06234567901234565,17.39444444444444,0)" xlink:href="#an"/><use transform="matrix(0.06234567901234565,0,0,0.06234567901234565,29.86358024691357,0)" xlink:href="#W"/><use transform="matrix(0.06234567901234565,0,0,0.06234567901234565,42.332716049382704,0)" xlink:href="#Q"/><use transform="matrix(0.06234567901234565,0,0,0.06234567901234565,60.97407407407405,0)" xlink:href="#U"/><use transform="matrix(0.06234567901234565,0,0,0.06234567901234565,72.19629629629627,0)" xlink:href="#ao"/><use transform="matrix(0.06234567901234565,0,0,0.06234567901234565,88.34382716049379,0)" xlink:href="#Y"/><use transform="matrix(0.06234567901234565,0,0,0.06234567901234565,95.76296296296292,0)" xlink:href="#R"/><use transform="matrix(0.06234567901234565,0,0,0.06234567901234565,108.23209876543204,0)" xlink:href="#af"/><use transform="matrix(0.06234567901234565,0,0,0.06234567901234565,120.70123456790117,0)" xlink:href="#T"/><use transform="matrix(0.06234567901234565,0,0,0.06234567901234565,126.93580246913574,0)" xlink:href="#R"/><use transform="matrix(0.06234567901234565,0,0,0.06234567901234565,139.40493827160486,0)" xlink:href="#Z"/></g><g id="u"><use transform="matrix(0.06234567901234565,0,0,0.06234567901234565,0,0)" xlink:href="#O"/><use transform="matrix(0.06234567901234565,0,0,0.06234567901234565,11.222222222222218,0)" xlink:href="#P"/><use transform="matrix(0.06234567901234565,0,0,0.06234567901234565,23.691358024691347,0)" xlink:href="#S"/><use transform="matrix(0.06234567901234565,0,0,0.06234567901234565,36.16049382716048,0)" xlink:href="#T"/><use transform="matrix(0.06234567901234565,0,0,0.06234567901234565,42.39506172839504,0)" xlink:href="#af"/><use transform="matrix(0.06234567901234565,0,0,0.06234567901234565,54.864197530864175,0)" xlink:href="#ad"/><use transform="matrix(0.06234567901234565,0,0,0.06234567901234565,59.78950617283948,0)" xlink:href="#S"/><use transform="matrix(0.06234567901234565,0,0,0.06234567901234565,72.2586419753086,0)" xlink:href="#U"/></g><g id="v"><use transform="matrix(0.05,0,0,0.05,0,0)" xlink:href="#af"/><use transform="matrix(0.05,0,0,0.05,10,0)" xlink:href="#ag"/><use transform="matrix(0.05,0,0,0.05,13.949999999999998,0)" xlink:href="#an"/><use transform="matrix(0.05,0,0,0.05,23.95,0)" xlink:href="#W"/><use transform="matrix(0.05,0,0,0.05,33.95,0)" xlink:href="#Q"/><use transform="matrix(0.05,0,0,0.05,48.900000000000006,0)" xlink:href="#ae"/><use transform="matrix(0.05,0,0,0.05,58.900000000000006,0)" xlink:href="#S"/><use transform="matrix(0.05,0,0,0.05,68.9,0)" xlink:href="#af"/><use transform="matrix(0.05,0,0,0.05,78.9,0)" xlink:href="#Q"/><use transform="matrix(0.05,0,0,0.05,93.85000000000001,0)" xlink:href="#R"/></g><g id="w"><use transform="matrix(0.05,0,0,0.05,0,0)" xlink:href="#af"/><use transform="matrix(0.05,0,0,0.05,10,0)" xlink:href="#ag"/><use transform="matrix(0.05,0,0,0.05,13.949999999999998,0)" xlink:href="#an"/><use transform="matrix(0.05,0,0,0.05,23.95,0)" xlink:href="#W"/><use transform="matrix(0.05,0,0,0.05,33.95,0)" xlink:href="#Q"/><use transform="matrix(0.05,0,0,0.05,48.900000000000006,0)" xlink:href="#ae"/><use transform="matrix(0.05,0,0,0.05,58.900000000000006,0)" xlink:href="#ad"/><use transform="matrix(0.05,0,0,0.05,62.85,0)" xlink:href="#Z"/><path fill="#333" d="M-.9 1.25h74.65v1.32H-.9z"/></g><path fill="#333" d="M108 0H70L1-190h34L89-25l56-165h34" id="ap"/><g id="x"><use transform="matrix(0.05,0,0,0.05,0,0)" xlink:href="#ad"/><use transform="matrix(0.05,0,0,0.05,3.95,0)" xlink:href="#U"/><use transform="matrix(0.05,0,0,0.05,12.949999999999998,0)" xlink:href="#ao"/><use transform="matrix(0.05,0,0,0.05,25.899999999999995,0)" xlink:href="#P"/><use transform="matrix(0.05,0,0,0.05,35.9,0)" xlink:href="#ap"/><use transform="matrix(0.05,0,0,0.05,44.9,0)" xlink:href="#R"/><use transform="matrix(0.05,0,0,0.05,54.900000000000006,0)" xlink:href="#Y"/></g><g id="y"><use transform="matrix(0.05,0,0,0.05,0,0)" xlink:href="#af"/><use transform="matrix(0.05,0,0,0.05,10,0)" xlink:href="#ag"/><use transform="matrix(0.05,0,0,0.05,13.949999999999998,0)" xlink:href="#an"/><use transform="matrix(0.05,0,0,0.05,23.95,0)" xlink:href="#W"/><use transform="matrix(0.05,0,0,0.05,33.95,0)" xlink:href="#Q"/><use transform="matrix(0.05,0,0,0.05,48.900000000000006,0)" xlink:href="#ae"/><use transform="matrix(0.05,0,0,0.05,58.900000000000006,0)" xlink:href="#Z"/><use transform="matrix(0.05,0,0,0.05,68.9,0)" xlink:href="#R"/><use transform="matrix(0.05,0,0,0.05,78.9,0)" xlink:href="#U"/><use transform="matrix(0.05,0,0,0.05,87.9,0)" xlink:href="#O"/><use transform="matrix(0.05,0,0,0.05,96.9,0)" xlink:href="#Y"/><use transform="matrix(0.05,0,0,0.05,102.85000000000001,0)" xlink:href="#ad"/><use transform="matrix(0.05,0,0,0.05,106.80000000000001,0)" xlink:href="#aa"/><use transform="matrix(0.05,0,0,0.05,116.80000000000001,0)" xlink:href="#T"/><use transform="matrix(0.05,0,0,0.05,121.80000000000001,0)" xlink:href="#ad"/><use transform="matrix(0.05,0,0,0.05,125.75,0)" xlink:href="#P"/><use transform="matrix(0.05,0,0,0.05,135.75,0)" xlink:href="#S"/></g><path fill="#333" d="M177-190C167-65 218 103 67 71c-23-6-38-20-44-43l32-5c15 47 100 32 89-28v-30C133-14 115 1 83 1 29 1 15-40 15-95c0-56 16-97 71-98 29-1 48 16 59 35 1-10 0-23 2-32h30zM94-22c36 0 50-32 50-73 0-42-14-75-50-75-39 0-46 34-46 75s6 73 46 73" id="aq"/><g id="z"><use transform="matrix(0.05,0,0,0.05,0,0)" xlink:href="#T"/><use transform="matrix(0.05,0,0,0.05,5,0)" xlink:href="#af"/><use transform="matrix(0.05,0,0,0.05,15,0)" xlink:href="#aq"/><use transform="matrix(0.05,0,0,0.05,25,0)" xlink:href="#U"/></g><g id="A"><use transform="matrix(0.05,0,0,0.05,0,0)" xlink:href="#O"/><use transform="matrix(0.05,0,0,0.05,9,0)" xlink:href="#P"/><use transform="matrix(0.05,0,0,0.05,19,0)" xlink:href="#S"/><use transform="matrix(0.05,0,0,0.05,29,0)" xlink:href="#T"/><use transform="matrix(0.05,0,0,0.05,34,0)" xlink:href="#R"/><use transform="matrix(0.05,0,0,0.05,44,0)" xlink:href="#S"/><use transform="matrix(0.05,0,0,0.05,54,0)" xlink:href="#T"/></g><g id="B"><use transform="matrix(0.05,0,0,0.05,0,0)" xlink:href="#ag"/><use transform="matrix(0.05,0,0,0.05,3.95,0)" xlink:href="#af"/><use transform="matrix(0.05,0,0,0.05,13.949999999999998,0)" xlink:href="#U"/><use transform="matrix(0.05,0,0,0.05,22.95,0)" xlink:href="#T"/><use transform="matrix(0.05,0,0,0.05,27.950000000000003,0)" xlink:href="#ae"/><use transform="matrix(0.05,0,0,0.05,37.95,0)" xlink:href="#S"/><use transform="matrix(0.05,0,0,0.05,47.95,0)" xlink:href="#af"/><use transform="matrix(0.05,0,0,0.05,57.95,0)" xlink:href="#Q"/><use transform="matrix(0.05,0,0,0.05,72.9,0)" xlink:href="#R"/></g><g id="C"><use transform="matrix(0.05,0,0,0.05,0,0)" xlink:href="#Z"/><use transform="matrix(0.05,0,0,0.05,10,0)" xlink:href="#af"/><use transform="matrix(0.05,0,0,0.05,20,0)" xlink:href="#T"/><use transform="matrix(0.05,0,0,0.05,25,0)" xlink:href="#R"/><use transform="matrix(0.05,0,0,0.05,35,0)" xlink:href="#ae"/><use transform="matrix(0.05,0,0,0.05,45,0)" xlink:href="#O"/><use transform="matrix(0.05,0,0,0.05,54,0)" xlink:href="#Y"/><use transform="matrix(0.05,0,0,0.05,59.95,0)" xlink:href="#R"/><use transform="matrix(0.05,0,0,0.05,69.95,0)" xlink:href="#af"/><use transform="matrix(0.05,0,0,0.05,79.95,0)" xlink:href="#T"/><use transform="matrix(0.05,0,0,0.05,84.95,0)" xlink:href="#R"/><use transform="matrix(0.05,0,0,0.05,94.95,0)" xlink:href="#Z"/></g></defs></g></svg>